<?xml version="1.0" encoding="utf-8"?><svg xmlns="http://www.w3.org/2000/svg" xmlns:xlink="http://www.w3.org/1999/xlink"><symbol viewBox="0 0 50 50" id="helpicon" xmlns="http://www.w3.org/2000/svg"><g fill="none" fill-rule="evenodd" transform="translate(3 3)"><ellipse cx="22" cy="22" stroke="#FFF" stroke-width="6" rx="22" ry="22"/><path fill="#FFF" d="M24.176 22.806c-.525 1.493-1.17 2.3-2.421 2.3-1.09 0-1.735-.646-1.735-1.655 0-.968.565-1.735 1.695-2.26l4.56-2.219c1.896-.928 2.865-2.502 2.865-4.681 0-3.874-3.027-6.214-7.224-6.214-4.075 0-6.9 2.502-7.546 6.093l3.834.646c.605-2.22 1.937-3.31 3.954-3.31 1.655 0 2.946 1.01 2.946 2.462 0 1.413-.524 2.139-1.977 2.825l-3.35 1.533c-2.3 1.05-3.43 2.704-3.43 4.964 0 3.067 2.22 5.004 5.489 5.004 2.865 0 4.761-1.413 5.609-4.237l-3.269-1.251zm-4.56 13.155c1.17 1.13 3.269 1.13 4.399 0 1.17-1.17 1.17-3.188 0-4.318-1.13-1.17-3.229-1.17-4.399 0-1.13 1.13-1.13 3.147 0 4.318z"/></g></symbol><symbol viewBox="0 0 50 50" id="slash" xmlns="http://www.w3.org/2000/svg"><path fill="#FFF" fill-rule="evenodd" d="M9.69 50H0L40.31 0H50"/></symbol></svg>